<svg id="Block" enable-background="new 0 0 64 64" height="512" viewBox="0 0 64 64" width="512" xmlns="http://www.w3.org/2000/svg"><path d="m54.6 9.4c-6-6.1-14.1-9.4-22.6-9.4s-16.6 3.3-22.6 9.4-9.4 14.1-9.4 22.6 3.3 16.6 9.4 22.6c6 6 14.1 9.4 22.6 9.4s16.6-3.3 22.6-9.4c6-6 9.4-14.1 9.4-22.6s-3.3-16.6-9.4-22.6zm-38.5 6.7c4.2-4.3 9.9-6.6 15.9-6.6 4.4 0 8.6 1.3 12.2 3.6l-31.1 31.1c-2.3-3.6-3.6-7.8-3.6-12.2 0-6 2.3-11.7 6.6-15.9zm31.8 31.8c-4.3 4.2-9.9 6.6-15.9 6.6-4.4 0-8.6-1.3-12.2-3.6l31.1-31.1c2.3 3.6 3.6 7.8 3.6 12.2 0 6-2.3 11.7-6.6 15.9z" fill="#f74354"/></svg>